<svg width="45" height="45" viewBox="0 0 45 45" fill="none" xmlns="http://www.w3.org/2000/svg">
<circle cx="22.5" cy="22.5" r="22.5" fill="#00DF31"/>
<path d="M14.1113 19L11.416 10.4688H12.5762L14.4512 16.8379L14.5742 17.2539L14.7031 16.8262L16.5898 10.4688H17.7441L15.0547 19H14.1113ZM23.2988 16.791H20.4512L19.7656 19H18.6816L21.4355 10.4688H22.3438L25.0508 19H23.9727L23.2988 16.791ZM20.7441 15.8477H23.0117L21.8867 12.1445L20.7441 15.8477ZM29.2578 15.5195H27.5527V19H26.4746V10.4688H28.9766C29.375 10.4766 29.75 10.5332 30.1016 10.6387C30.4531 10.7441 30.7617 10.9023 31.0273 11.1133C31.2891 11.3242 31.4941 11.5898 31.6426 11.9102C31.7949 12.2266 31.8711 12.5996 31.8711 13.0293C31.8711 13.3066 31.8301 13.5605 31.748 13.791C31.6699 14.0215 31.5605 14.2305 31.4199 14.418C31.2793 14.6055 31.1113 14.7715 30.916 14.916C30.7207 15.0605 30.5059 15.1836 30.2715 15.2852L32.082 18.9297L32.0762 19H30.9336L29.2578 15.5195ZM27.5527 14.6289H29.0059C29.248 14.625 29.4766 14.5879 29.6914 14.5176C29.9062 14.4434 30.0957 14.3379 30.2598 14.2012C30.4199 14.0645 30.5469 13.8984 30.6406 13.7031C30.7344 13.5039 30.7812 13.2754 30.7812 13.0176C30.7812 12.7441 30.7363 12.5059 30.6465 12.3027C30.5566 12.0957 30.4316 11.9219 30.2715 11.7812C30.1113 11.6445 29.9199 11.541 29.6973 11.4707C29.4785 11.4004 29.2383 11.3633 28.9766 11.3594H27.5527V14.6289ZM16.4141 32.1348H17.6035V33.0195H16.4141V35H15.3301V33.0195H11.4395V32.3809L15.2598 26.4688H16.4141V32.1348ZM12.6406 32.1348H15.3301V27.9102L15.1543 28.2383L12.6406 32.1348ZM24.582 31.7363C24.582 32.2793 24.5195 32.7617 24.3945 33.1836C24.2695 33.6016 24.0898 33.9531 23.8555 34.2383C23.6211 34.5273 23.334 34.7461 22.9941 34.8945C22.6543 35.043 22.2656 35.1172 21.8281 35.1172C21.3945 35.1172 21.0059 35.0449 20.6621 34.9004C20.3184 34.752 20.0273 34.5312 19.7891 34.2383C19.5508 33.9531 19.3691 33.6016 19.2441 33.1836C19.1191 32.7617 19.0566 32.2793 19.0566 31.7363V29.7383C19.0566 29.1953 19.1191 28.7148 19.2441 28.2969C19.3691 27.875 19.5508 27.5195 19.7891 27.2305C20.0234 26.9414 20.3105 26.7227 20.6504 26.5742C20.9941 26.4219 21.3828 26.3457 21.8164 26.3457C22.2539 26.3457 22.6426 26.4219 22.9824 26.5742C23.3262 26.7227 23.6172 26.9414 23.8555 27.2305C24.0898 27.5195 24.2695 27.875 24.3945 28.2969C24.5195 28.7148 24.582 29.1953 24.582 29.7383V31.7363ZM20.1465 31.5195L23.4688 28.9707C23.4375 28.6895 23.3809 28.4414 23.2988 28.2266C23.2207 28.0078 23.1133 27.8262 22.9766 27.6816C22.8438 27.5332 22.6797 27.4219 22.4844 27.3477C22.293 27.2734 22.0703 27.2363 21.8164 27.2363C21.5586 27.2363 21.3301 27.2773 21.1309 27.3594C20.9355 27.4375 20.7695 27.5527 20.6328 27.7051C20.4688 27.8965 20.3457 28.1445 20.2637 28.4492C20.1855 28.75 20.1465 29.0996 20.1465 29.498V30.9277C20.1465 31.0254 20.1465 31.123 20.1465 31.2207C20.1465 31.3184 20.1465 31.418 20.1465 31.5195ZM23.4922 31.9648V30.7578C23.4922 30.6992 23.4922 30.5879 23.4922 30.4238C23.4922 30.2559 23.4922 30.1172 23.4922 30.0078L20.1758 32.5449C20.2109 32.8301 20.2734 33.082 20.3633 33.3008C20.4531 33.5156 20.5703 33.6934 20.7148 33.834C20.8477 33.9668 21.0078 34.0684 21.1953 34.1387C21.3828 34.2051 21.5938 34.2383 21.8281 34.2383C22.0742 34.2383 22.293 34.2012 22.4844 34.127C22.6758 34.0527 22.8379 33.9453 22.9707 33.8047C23.1504 33.6133 23.2812 33.3633 23.3633 33.0547C23.4492 32.7461 23.4922 32.3828 23.4922 31.9648ZM30.8281 32.1348H32.0176V33.0195H30.8281V35H29.7441V33.0195H25.8535V32.3809L29.6738 26.4688H30.8281V32.1348ZM27.0547 32.1348H29.7441V27.9102L29.5684 28.2383L27.0547 32.1348Z" fill="black"/>
</svg>
